# xmcd CD database file
#
# Track frame offsets:
#	150
#	17702
#	35413
#	54003
#	72560
#
# Disc length: 1055 seconds
#
# Revision: 0
# Processed by: cddbd v1.5.1PL2 Copyright (c) Steve Scherf et al.
# Submitted via: CDex 1.51
#
DISCID=39041d05
DTITLE=夢防衛少女隊 - ドリーム！ドリーム！ドリームｖ
DYEAR=2006
DGENRE=Anime
TTITLE0=ドリーム！ドリーム！ドリームｖ
TTITLE1=ドリーム！ドリーム！ドリームｖ(オリジナルカラオケ)
TTITLE2=ダークパワーのテーマ第１楽章
TTITLE3=ダークパワーのテーマ第２楽章
TTITLE4=ダークパワーのテーマ〜Chaos〜
EXTD=YEAR: 2006
EXTT0=
EXTT1=
EXTT2=
EXTT3=
EXTT4=
PLAYORDER=
